<svg width="568" height="496" viewBox="0 0 568 496" fill="none" xmlns="http://www.w3.org/2000/svg">
<path d="M12.5573 394.45H527.84" stroke="#263238" stroke-miterlimit="10"/>
<path d="M12.5573 296.891H527.84" stroke="#263238" stroke-miterlimit="10"/>
<path d="M12.5573 199.332H527.84" stroke="#263238" stroke-miterlimit="10"/>
<path d="M12.5573 101.773H527.84" stroke="#263238" stroke-miterlimit="10"/>
<path d="M129.715 46.3772V394.681" stroke="#263238" stroke-miterlimit="10"/>
<path d="M439.435 46.3772V394.681" stroke="#263238" stroke-miterlimit="10"/>
<path d="M141.221 175.489L137.386 179.529" stroke="#263238" stroke-miterlimit="10"/>
<path d="M206.538 106.605L145.837 170.618" stroke="#263238" stroke-miterlimit="10"/>
<path d="M210.322 117.025L176.226 152.067" stroke="#263238" stroke-miterlimit="10"/>
<path d="M452.692 175.489L448.857 179.529" stroke="#263238" stroke-miterlimit="10"/>
<path d="M517.996 106.605L457.308 170.618" stroke="#263238" stroke-miterlimit="10"/>
<path d="M521.793 117.025L487.697 152.067" stroke="#263238" stroke-miterlimit="10"/>
<path d="M4.83538 372.499L1 376.539" stroke="#263238" stroke-miterlimit="10"/>
<path d="M70.1391 303.603L9.45062 367.628" stroke="#263238" stroke-miterlimit="10"/>
<path d="M73.9361 314.023L39.8268 349.078" stroke="#263238" stroke-miterlimit="10"/>
<path d="M55.0277 92.1461L51.2051 96.186" stroke="#263238" stroke-miterlimit="10"/>
<path d="M120.344 23.2499L59.6557 87.2623" stroke="#263238" stroke-miterlimit="10"/>
<path d="M124.128 33.6693L90.0319 68.7119" stroke="#263238" stroke-miterlimit="10"/>
<path d="M338.846 92.1461L335.023 96.186" stroke="#263238" stroke-miterlimit="10"/>
<path d="M404.162 23.2499L343.474 87.2623" stroke="#263238" stroke-miterlimit="10"/>
<path d="M407.946 33.6693L373.85 68.7119" stroke="#263238" stroke-miterlimit="10"/>
<path d="M251.092 276.832L247.257 280.872" stroke="#263238" stroke-miterlimit="10"/>
<path d="M316.396 207.949L255.707 271.961" stroke="#263238" stroke-miterlimit="10"/>
<path d="M320.193 218.368L286.096 253.411" stroke="#263238" stroke-miterlimit="10"/>
<path d="M512.767 466.543C512.767 466.543 481.112 399.091 487.991 397.148C494.869 395.205 509.29 405.944 509.29 405.944C509.29 405.944 466.973 292.545 477.929 283.749C488.885 274.953 509.341 319.967 509.341 319.967C509.341 319.967 487.492 250.509 490.062 224.083C492.631 197.657 520.387 223.111 520.387 223.111C520.387 223.111 498.154 128.288 518.801 123.392C539.449 118.495 538.758 231.894 538.758 231.894C538.758 231.894 545.534 150.751 553.806 173.239C562.077 195.727 544.69 270.99 544.69 270.99C544.69 270.99 556.03 245.574 562.333 269.034C568.636 292.493 549.804 387.317 549.804 387.317C549.804 387.317 565.81 371.681 567.306 391.229C568.802 410.776 534.168 471.388 534.168 471.388L514.57 473.383L512.767 466.543Z" fill="#92E3A9"/>
<path opacity="0.6" d="M512.767 466.543C512.767 466.543 481.112 399.091 487.991 397.148C494.869 395.205 509.29 405.944 509.29 405.944C509.29 405.944 466.973 292.545 477.929 283.749C488.885 274.953 509.341 319.967 509.341 319.967C509.341 319.967 487.492 250.509 490.062 224.083C492.631 197.657 520.387 223.111 520.387 223.111C520.387 223.111 498.154 128.288 518.801 123.392C539.449 118.495 538.758 231.894 538.758 231.894C538.758 231.894 545.534 150.751 553.806 173.239C562.077 195.727 544.69 270.99 544.69 270.99C544.69 270.99 556.03 245.574 562.333 269.034C568.636 292.493 549.804 387.317 549.804 387.317C549.804 387.317 565.81 371.681 567.306 391.229C568.802 410.776 534.168 471.388 534.168 471.388L514.57 473.383L512.767 466.543Z" fill="white"/>
<path d="M519.53 469.547C519.53 469.547 493.143 422.628 498.026 413.819C502.91 405.011 517.574 425.555 517.574 425.555C517.574 425.555 484.334 342.456 489.231 334.644C494.127 326.833 509.763 361.044 509.763 361.044C509.763 361.044 503.895 246.673 513.662 250.573C523.429 254.472 524.375 309.164 524.375 309.164C524.375 309.164 518.52 179.158 527.316 183.07C536.112 186.982 535.14 331.653 535.14 331.653C535.14 331.653 552.732 275.925 555.659 301.34C558.587 326.756 533.184 395.192 533.184 395.192C533.184 395.192 557.615 341.42 560.594 369.827C563.573 398.235 540.995 450.907 540.995 450.907C540.995 450.907 549.791 429.404 549.791 441.127C549.791 452.85 542.951 467.527 542.951 467.527" stroke="#263238" stroke-linecap="round" stroke-linejoin="round"/>
<path d="M446.926 324.11L482.532 401.814L460.133 408.13L433.72 375.248L446.926 324.11Z" fill="#92E3A9"/>
<g opacity="0.1">
<path opacity="0.1" d="M440.496 348.988L438.987 354.857L468.558 405.752L472.802 404.563L440.496 348.988Z" fill="black"/>
<path opacity="0.1" d="M460.299 408.092L464.569 406.89L437.057 362.31L435.587 368.025L460.299 408.092Z" fill="black"/>
<path opacity="0.1" d="M444.152 334.836L442.592 340.896L476.548 403.502L480.742 402.313L444.152 334.836Z" fill="black"/>
</g>
<path d="M446.926 324.11L482.532 401.814L460.133 408.13L433.72 375.248L446.926 324.11Z" stroke="#263238" stroke-linecap="round" stroke-linejoin="round"/>
<path d="M376.113 302.465L329.743 323.828L354.468 424.149L346.593 466.351H434.564L425.857 420.493L447.208 324.11L398.588 304.153L376.113 302.465Z" fill="#92E3A9"/>
<g opacity="0.1">
<path opacity="0.1" d="M376.534 466.351L378.312 426.386C378.33 426.199 378.33 426.011 378.312 425.824L360.094 309.855L354.724 312.322L372.622 426.425L370.845 466.351H376.534Z" fill="black"/>
<path opacity="0.1" d="M387.197 416.823C387.197 416.823 387.197 416.721 387.197 416.67L372.75 304.012L367.342 306.569L381.533 417.373L385.19 466.415H390.892L387.197 416.823Z" fill="black"/>
<path opacity="0.1" d="M360.451 466.351L365.565 427.345C365.61 427.057 365.61 426.764 365.565 426.476L346.069 316.337L340.738 318.791L359.915 427.038L354.801 466.351H360.451Z" fill="black"/>
<path opacity="0.1" d="M445.188 323.279L439.831 321.08L420.283 422.167C420.226 422.497 420.226 422.835 420.283 423.165L427.315 466.351H433.081L425.934 422.756L426.1 421.925L425.819 420.493L430.102 401.201L445.188 323.279Z" fill="black"/>
<path opacity="0.1" d="M393.947 313.946L388.271 314.112L392.988 466.351H398.665L393.947 313.946Z" fill="black"/>
<path opacity="0.1" d="M413.878 422.014L432.761 318.178L427.392 315.966L408.215 421.49C408.151 421.815 408.151 422.149 408.215 422.474L415.706 466.351H421.472L413.878 422.014Z" fill="black"/>
<path opacity="0.1" d="M403.561 418.485L417.918 312.079L412.485 309.855L397.885 418.076C397.854 418.305 397.854 418.538 397.885 418.767L403.178 466.351H408.892L403.561 418.485Z" fill="black"/>
</g>
<path d="M376.113 302.465L329.743 323.828L354.468 424.149L346.593 466.351H434.564L425.857 420.493L447.208 324.11L398.588 304.153L376.113 302.465Z" stroke="#263238" stroke-linecap="round" stroke-linejoin="round"/>
<path d="M329.743 323.828L293.217 402.927L316.536 407.849L342.949 374.967L329.743 323.828Z" fill="#92E3A9"/>
<g opacity="0.1">
<path opacity="0.1" d="M339.344 361.006L313.903 407.299L316.536 407.849L322.622 400.267L340.891 367.028L339.344 361.006Z" fill="black"/>
<path opacity="0.1" d="M337.056 352.159L335.394 345.716L306.999 405.842L311.282 406.749L337.056 352.159Z" fill="black"/>
<path opacity="0.1" d="M297.73 403.873L302.013 404.78L333.425 338.083L331.75 331.614L297.73 403.873Z" fill="black"/>
</g>
<path d="M328.784 336.997L341.671 371.579L328.733 351.776" stroke="#263238" stroke-miterlimit="10"/>
<path d="M329.743 323.828L293.217 402.927L316.536 407.849L342.949 374.967L329.743 323.828Z" stroke="#263238" stroke-linecap="round" stroke-linejoin="round"/>
<path d="M318.211 396.049L364.3 448.606L355.35 458.719L297.27 412.464C297.27 412.464 289.305 408.629 294.087 400.83" fill="#92E3A9"/>
<g opacity="0.1">
<path opacity="0.1" d="M359.467 452.262L363.788 448.568L340.546 421.515L318.211 396.049L312.202 397.238L359.467 452.262Z" fill="black"/>
<path opacity="0.1" d="M350.262 454.691L354.11 457.76L357.728 454.576L308.022 398.069L301.578 399.334L350.262 454.691Z" fill="black"/>
</g>
<path d="M318.211 396.049L364.3 448.606L355.35 458.719L297.27 412.464C297.27 412.464 289.305 408.629 294.087 400.83" stroke="#263238" stroke-linecap="round" stroke-linejoin="round"/>
<path d="M356.897 446.624C358.176 445.908 380.408 440.59 380.715 443.313C381.022 446.036 387.644 449.041 390.661 449.041C393.679 449.041 396.696 446.624 397.297 450.242C397.898 453.86 394.586 454.167 391.876 454.461C389.166 454.755 379.807 451.751 379.807 451.751C379.807 451.751 371.063 458.987 367.445 460.79C363.827 462.592 357.217 462.068 354.788 460.189C352.359 458.309 349.073 450.843 356.897 446.624Z" fill="white" stroke="#263238" stroke-linecap="round" stroke-linejoin="round"/>
<path d="M377.417 443.006C377.417 443.006 385.854 440.59 387.644 441.498C389.434 442.405 390.367 460.496 390.367 460.496C390.367 460.496 389.46 462.298 387.644 460.496C385.829 458.693 379.807 445.154 379.807 445.154" fill="white"/>
<path d="M377.417 443.006C377.417 443.006 385.854 440.59 387.644 441.498C389.434 442.405 390.367 460.496 390.367 460.496C390.367 460.496 389.46 462.298 387.644 460.496C385.829 458.693 379.807 445.154 379.807 445.154" stroke="#263238" stroke-linecap="round" stroke-linejoin="round"/>
<path d="M373.185 443.607C373.185 443.607 381.93 441.498 383.745 444.809C385.56 448.12 390.073 462.899 386.455 463.513C382.837 464.126 381.636 459.281 381.636 459.281L375.908 448.734L371.983 448.133" fill="white"/>
<path d="M373.185 443.607C373.185 443.607 381.93 441.498 383.745 444.809C385.56 448.12 390.073 462.899 386.455 463.513C382.837 464.126 381.636 459.281 381.636 459.281L375.908 448.734L371.983 448.133" stroke="#263238" stroke-linecap="round" stroke-linejoin="round"/>
<path d="M370.181 446.318C370.181 446.318 374.399 444.515 376.509 446.024C378.618 447.532 388.271 462.899 386.455 463.513C384.64 464.126 380.421 463.807 379.82 462.605C379.219 461.403 371.382 451.099 371.382 451.099" fill="white"/>
<path d="M370.181 446.318C370.181 446.318 374.399 444.515 376.509 446.024C378.618 447.532 388.271 462.899 386.455 463.513C384.64 464.126 380.421 463.807 379.82 462.605C379.219 461.403 371.382 451.099 371.382 451.099" stroke="#263238" stroke-linecap="round" stroke-linejoin="round"/>
<path d="M367.125 451.444C367.125 451.444 371.037 447.826 373.147 449.041C375.256 450.255 384.001 461.697 382.198 462.899C380.395 464.101 379.181 462.899 377.378 460.496C376.085 458.875 374.56 457.453 372.853 456.277L369.234 457.479" fill="white"/>
<path d="M367.125 451.444C367.125 451.444 371.037 447.826 373.147 449.041C375.256 450.255 384.001 461.697 382.198 462.899C380.395 464.101 379.181 462.899 377.378 460.496C376.085 458.875 374.56 457.453 372.853 456.277L369.234 457.479" stroke="#263238" stroke-linecap="round" stroke-linejoin="round"/>
<path d="M456.208 397.736L440.867 449.936L451.964 457.683L477.034 417.386C477.034 417.386 487.339 405.752 480.87 399.206" fill="#92E3A9"/>
<g opacity="0.1">
<path opacity="0.1" d="M452.309 457.057L452.501 456.737L473.736 398.784L467.804 398.426L447.284 454.449L449.586 456.047L452.309 457.057Z" fill="black"/>
<path opacity="0.1" d="M440.892 449.974L445.712 453.349L465.528 398.452L464.978 398.26L459.673 397.941L440.892 449.974Z" fill="black"/>
<path opacity="0.1" d="M482.621 402.262C482.281 401.107 481.657 400.057 480.806 399.206L477.763 399.027L461.731 441.971L476.97 417.45L482.621 402.262Z" fill="black"/>
</g>
<path d="M456.208 397.736L440.867 449.936L451.964 457.683L477.034 417.386C477.034 417.386 487.339 405.752 480.87 399.206" stroke="#263238" stroke-linecap="round" stroke-linejoin="round"/>
<path d="M448.588 446.624C447.31 445.908 425.065 440.59 424.771 443.313C424.477 446.036 417.829 449.041 414.824 449.041C411.82 449.041 408.79 446.624 408.189 450.242C407.588 453.86 410.899 454.167 413.61 454.461C416.32 454.755 425.678 451.751 425.678 451.751C425.678 451.751 434.423 458.987 438.041 460.79C441.659 462.592 448.269 462.068 450.698 460.189C453.127 458.309 456.425 450.843 448.588 446.624Z" fill="white" stroke="#263238" stroke-linecap="round" stroke-linejoin="round"/>
<path d="M428.082 443.006C428.082 443.006 419.644 440.59 417.854 441.498C416.064 442.405 415.144 460.496 415.144 460.496C415.144 460.496 416.052 462.298 417.854 460.496C419.657 458.693 425.704 445.154 425.704 445.154" fill="white"/>
<path d="M428.082 443.006C428.082 443.006 419.644 440.59 417.854 441.498C416.064 442.405 415.144 460.496 415.144 460.496C415.144 460.496 416.052 462.298 417.854 460.496C419.657 458.693 425.704 445.154 425.704 445.154" stroke="#263238" stroke-linecap="round" stroke-linejoin="round"/>
<path d="M432.326 443.607C432.326 443.607 423.595 441.498 421.779 444.809C419.964 448.12 415.387 462.899 419.069 463.513C422.751 464.126 423.889 459.281 423.889 459.281L429.616 448.734L433.541 448.133" fill="white"/>
<path d="M432.326 443.607C432.326 443.607 423.595 441.498 421.779 444.809C419.964 448.12 415.387 462.899 419.069 463.513C422.751 464.126 423.889 459.281 423.889 459.281L429.616 448.734L433.541 448.133" stroke="#263238" stroke-linecap="round" stroke-linejoin="round"/>
<path d="M435.318 446.318C435.318 446.318 431.099 444.515 428.99 446.024C426.88 447.532 417.228 462.899 419.043 463.513C420.859 464.126 425.065 463.807 425.678 462.605C426.292 461.403 434.116 451.099 434.116 451.099" fill="white"/>
<path d="M435.318 446.318C435.318 446.318 431.099 444.515 428.99 446.024C426.88 447.532 417.228 462.899 419.043 463.513C420.859 464.126 425.065 463.807 425.678 462.605C426.292 461.403 434.116 451.099 434.116 451.099" stroke="#263238" stroke-linecap="round" stroke-linejoin="round"/>
<path d="M438.335 451.444C438.335 451.444 434.423 447.813 432.326 449.092C430.23 450.37 421.472 461.749 423.288 462.95C425.103 464.152 426.305 462.95 428.108 460.547C429.401 458.926 430.926 457.504 432.633 456.328L436.251 457.53" fill="white"/>
<path d="M438.335 451.444C438.335 451.444 434.423 447.813 432.326 449.092C430.23 450.37 421.472 461.749 423.288 462.95C425.103 464.152 426.305 462.95 428.108 460.547C429.401 458.926 430.926 457.504 432.633 456.328L436.251 457.53" stroke="#263238" stroke-linecap="round" stroke-linejoin="round"/>
<path d="M379.475 297.121C379.475 297.121 372.175 299.371 369.081 303.872C365.987 308.372 369.644 343.21 369.644 343.21L392.976 330.285L417.42 345.741C417.42 345.741 415.17 310.059 413.201 304.997C411.232 299.934 398.869 294.04 394.65 294.603C390.431 295.165 379.475 297.121 379.475 297.121Z" fill="#92E3A9" stroke="#263238" stroke-linecap="round" stroke-linejoin="round"/>
<path d="M376.113 277.74V310.059L391.569 351.648L404.776 309.216V277.459L376.113 277.74Z" fill="white" stroke="#263238" stroke-linecap="round" stroke-linejoin="round"/>
<path d="M376.074 289.348C380.437 292.41 385.639 294.048 390.968 294.04C395.84 294.044 400.613 292.67 404.737 290.077V277.459L376.074 277.778V289.348Z" fill="#263238" stroke="#263238" stroke-linecap="round" stroke-linejoin="round"/>
<path d="M391.007 286.728C384.102 286.728 377.48 283.986 372.597 279.104C367.713 274.223 364.968 267.603 364.964 260.698L360.375 224.083C360.375 215.945 363.607 208.141 369.362 202.387C375.116 196.633 382.92 193.4 391.058 193.4C399.195 193.4 407 196.633 412.754 202.387C418.508 208.141 421.741 215.945 421.741 224.083L416.985 260.647C416.992 264.065 416.325 267.451 415.023 270.612C413.721 273.773 411.81 276.646 409.397 279.068C406.985 281.489 404.119 283.412 400.964 284.727C397.808 286.041 394.425 286.721 391.007 286.728Z" fill="white" stroke="#263238" stroke-linecap="round" stroke-linejoin="round"/>
<path d="M397.693 250.675C397.693 250.675 404.328 245.114 412.255 251.11" stroke="#263238" stroke-linecap="round" stroke-linejoin="round"/>
<path d="M385.701 250.036C383.73 248.781 381.384 248.252 379.066 248.54" stroke="#263238" stroke-linecap="round" stroke-linejoin="round"/>
<path d="M400.263 237.405C400.263 237.405 407.333 233.978 411.615 240.613" stroke="#263238" stroke-linecap="round" stroke-linejoin="round"/>
<path d="M388.859 265.454C388.859 265.454 391.863 267.806 394.433 265.454" stroke="#263238" stroke-linecap="round" stroke-linejoin="round"/>
<path d="M385.918 270.593C385.918 270.593 392.132 274.429 395.763 270.593" stroke="#263238" stroke-linecap="round" stroke-linejoin="round"/>
<path d="M404.098 220.248C404.098 220.248 378.427 243.95 371.267 261.222C364.108 278.494 370.526 296.533 374.476 301.724C378.427 306.914 380.868 307.643 380.868 307.643C380.868 307.643 367.291 312.834 358.406 299.256C349.521 285.679 351.732 270.363 354.456 259.752C357.179 249.141 356.424 218.023 362.599 207.655C368.774 197.287 377.66 189.629 392.477 191.354C407.294 193.08 415.182 200.738 419.874 210.365C424.566 219.992 422.342 236.292 423.825 243.452C425.308 250.611 431.726 272.089 433.209 284.925C434.692 297.761 417.19 306.902 414.428 308.142C412.551 308.931 410.544 309.365 408.509 309.42C408.509 309.42 414.428 279.798 415.668 262.756C416.908 245.715 416.985 235.589 416.985 235.589C416.985 235.589 405.338 220.989 404.098 220.248Z" fill="#263238"/>
<path d="M401.094 203.628C401.094 203.628 398.064 211.976 376.266 235.896C354.468 259.816 348.549 282.636 355.171 304.933" stroke="#707070" stroke-miterlimit="10"/>
<path d="M395.711 195.292C395.711 195.292 383.719 205.226 368.864 220.107C359.733 229.319 351.936 239.763 345.698 251.135" stroke="#707070" stroke-miterlimit="10"/>
<path d="M406.463 205.635C406.463 205.635 415.566 222.178 420.526 232.112C425.487 242.045 431.291 297.876 413.917 317.768" stroke="#707070" stroke-miterlimit="10"/>
<path d="M400.263 191.981L404.098 220.248" stroke="#707070" stroke-miterlimit="10"/>
<path d="M404.098 220.248C404.098 220.248 378.427 243.95 371.267 261.222C364.108 278.494 370.526 296.533 374.476 301.724C378.427 306.914 380.868 307.643 380.868 307.643C380.868 307.643 367.291 312.834 358.406 299.256C349.521 285.679 351.732 270.363 354.456 259.752C357.179 249.141 356.424 218.023 362.599 207.655C368.774 197.287 377.66 189.629 392.477 191.354C407.294 193.08 415.182 200.738 419.874 210.365C424.566 219.992 422.342 236.292 423.825 243.452C425.308 250.611 431.726 272.089 433.209 284.925C434.692 297.761 417.19 306.902 414.428 308.142C412.551 308.931 410.544 309.365 408.509 309.42C408.509 309.42 414.428 279.798 415.668 262.756C416.908 245.715 416.985 235.589 416.985 235.589C416.985 235.589 405.338 220.989 404.098 220.248Z" stroke="#263238" stroke-linecap="round" stroke-linejoin="round"/>
<path d="M357.843 236.791H354.059C351.969 236.791 350.275 238.485 350.275 240.575V255.725C350.275 257.815 351.969 259.509 354.059 259.509H357.843C359.933 259.509 361.628 257.815 361.628 255.725V240.575C361.628 238.485 359.933 236.791 357.843 236.791Z" fill="white" stroke="#263238" stroke-linecap="round" stroke-linejoin="round"/>
<path d="M427.225 236.791H423.441C421.351 236.791 419.657 238.485 419.657 240.575V255.725C419.657 257.815 421.351 259.509 423.441 259.509H427.225C429.315 259.509 431.01 257.815 431.01 255.725V240.575C431.01 238.485 429.315 236.791 427.225 236.791Z" fill="white" stroke="#263238" stroke-linecap="round" stroke-linejoin="round"/>
<path d="M426.318 236.791V224.441C426.318 214.883 422.521 205.716 415.762 198.957C409.003 192.198 399.836 188.401 390.278 188.401C380.718 188.401 371.55 192.198 364.789 198.956C358.029 205.715 354.229 214.881 354.225 224.441V236.791" stroke="#263238" stroke-width="2" stroke-linejoin="round"/>
<path d="M425.333 259.394C425.333 259.394 423.735 271.757 408.611 276.794" stroke="#263238" stroke-linecap="round" stroke-linejoin="round"/>
<path d="M408.036 276.257C408.675 278.111 406.872 280.412 403.996 281.371C401.119 282.33 398.294 281.678 397.603 279.824C396.913 277.97 398.767 275.669 401.631 274.71C404.494 273.751 407.435 274.403 408.036 276.257Z" stroke="#263238" stroke-linecap="round" stroke-linejoin="round"/>
<path d="M149.276 292.199L96.4497 317.372L111.689 466.658H216.996L231.89 314.892L182.247 291.841L149.276 292.199Z" fill="#92E3A9" stroke="#263238" stroke-linecap="round" stroke-linejoin="round"/>
<path d="M170.447 337.751C171.435 337.751 172.237 336.949 172.237 335.961C172.237 334.972 171.435 334.171 170.447 334.171C169.458 334.171 168.657 334.972 168.657 335.961C168.657 336.949 169.458 337.751 170.447 337.751Z" fill="#263238"/>
<path d="M172.237 346.7C172.237 347.054 172.132 347.4 171.935 347.694C171.738 347.989 171.459 348.218 171.132 348.354C170.805 348.489 170.445 348.525 170.098 348.455C169.751 348.386 169.432 348.216 169.181 347.966C168.931 347.715 168.761 347.396 168.691 347.049C168.622 346.702 168.658 346.342 168.793 346.015C168.929 345.688 169.158 345.408 169.453 345.212C169.747 345.015 170.093 344.91 170.447 344.91C170.922 344.91 171.377 345.099 171.713 345.434C172.048 345.77 172.237 346.225 172.237 346.7V346.7Z" fill="#263238"/>
<path d="M188.767 299.819L174.333 315.915L168.171 331.55L161.536 315.685L147.575 299.819V271.642H188.767V299.819Z" fill="white" stroke="#263238" stroke-linecap="round" stroke-linejoin="round"/>
<path d="M147.575 284.171C150.292 287.474 153.709 290.133 157.577 291.957C161.446 293.781 165.671 294.724 169.948 294.718V294.718C176.851 294.726 183.529 292.259 188.767 287.763V271.642H147.575V284.171Z" fill="#263238" stroke="#263238" stroke-linecap="round" stroke-linejoin="round"/>
<path d="M172.85 192.786H167.046C152.628 192.786 140.94 204.474 140.94 218.892V260.685C140.94 275.103 152.628 286.791 167.046 286.791H172.85C187.268 286.791 198.957 275.103 198.957 260.685V218.892C198.957 204.474 187.268 192.786 172.85 192.786Z" fill="white" stroke="#263238" stroke-linecap="round" stroke-linejoin="round"/>
<path d="M175.51 234.464L174.653 255.009C174.636 255.899 174.347 256.763 173.823 257.483C173.299 258.203 172.567 258.746 171.725 259.036C170.178 259.509 168.414 259.036 167.455 255.546" stroke="#263238" stroke-linecap="round" stroke-linejoin="round"/>
<path d="M158.736 263.114H181.749C181.749 263.114 177.721 271.885 169.91 271.885C162.099 271.885 158.736 263.114 158.736 263.114Z" fill="#263238" stroke="#263238" stroke-linecap="round" stroke-linejoin="round"/>
<path d="M160.373 266.195H179.754C180.491 265.232 181.133 264.201 181.672 263.114H158.736C159.173 264.196 159.722 265.228 160.373 266.195Z" fill="white" stroke="#263238" stroke-linecap="round" stroke-linejoin="round"/>
<path d="M158.468 243.707C159.386 243.707 160.13 241.956 160.13 239.795C160.13 237.635 159.386 235.883 158.468 235.883C157.55 235.883 156.806 237.635 156.806 239.795C156.806 241.956 157.55 243.707 158.468 243.707Z" fill="#263238"/>
<path d="M183.321 243.707C184.239 243.707 184.983 241.956 184.983 239.795C184.983 237.635 184.239 235.883 183.321 235.883C182.403 235.883 181.659 237.635 181.659 239.795C181.659 241.956 182.403 243.707 183.321 243.707Z" fill="#263238"/>
<path d="M178.118 229.491C178.118 229.491 183.794 225.937 190.199 231.626" stroke="#263238" stroke-linecap="round" stroke-linejoin="round"/>
<path d="M169.948 192.786C162.255 192.786 154.877 195.843 149.436 201.283C143.996 206.723 140.94 214.101 140.94 221.795V248.22H141.183H143.548V237.328C143.548 237.328 155.387 237.328 169.36 229.759C183.334 222.191 186.862 209.841 186.862 209.841C186.862 209.841 189.943 224.761 193.255 227.599L196.579 230.437V248.438H198.944V221.795C198.944 214.103 195.889 206.727 190.452 201.287C185.015 195.847 177.64 192.79 169.948 192.786V192.786Z" fill="#263238" stroke="#263238" stroke-linecap="round" stroke-linejoin="round"/>
<path d="M135.507 234.234H140.94V255.776H135.507C134.123 255.776 132.797 255.226 131.818 254.248C130.84 253.27 130.291 251.943 130.291 250.56V239.425C130.297 238.046 130.85 236.725 131.827 235.753C132.805 234.78 134.128 234.234 135.507 234.234V234.234Z" fill="white" stroke="#263238" stroke-linecap="round" stroke-linejoin="round"/>
<path d="M204.045 255.776H198.611V234.234H204.045C204.73 234.234 205.408 234.369 206.041 234.631C206.674 234.893 207.249 235.277 207.733 235.762C208.218 236.246 208.602 236.821 208.864 237.454C209.126 238.087 209.261 238.765 209.261 239.45V250.586C209.254 251.964 208.702 253.285 207.724 254.257C206.747 255.23 205.424 255.776 204.045 255.776Z" fill="white" stroke="#263238" stroke-linecap="round" stroke-linejoin="round"/>
<path d="M136.21 234.234V220.491C136.21 211.573 139.752 203.021 146.058 196.715C152.364 190.41 160.916 186.867 169.833 186.867V186.867C178.75 186.87 187.3 190.414 193.605 196.719C199.91 203.024 203.453 211.574 203.457 220.491V234.234" stroke="#263238" stroke-width="2" stroke-linejoin="round"/>
<path d="M203.482 255.776C203.482 255.776 201.82 268.561 186.198 273.777" stroke="#263238" stroke-linecap="round" stroke-linejoin="round"/>
<path d="M185.584 273.214C186.249 275.132 184.382 277.51 181.416 278.545C178.45 279.581 175.51 278.852 174.845 276.934C174.18 275.017 176.047 272.639 179.013 271.603C181.979 270.568 184.957 271.296 185.584 273.214Z" stroke="#263238" stroke-linecap="round" stroke-linejoin="round"/>
<path d="M96.4497 317.372L51.7676 411.914L70.203 427.997L103.532 386.166L96.4497 317.372Z" fill="#92E3A9" stroke="#263238" stroke-linecap="round" stroke-linejoin="round"/>
<path d="M92.7806 346.355L103.635 382.97L90.7478 361.939" stroke="#263238" stroke-miterlimit="10"/>
<path d="M231.89 314.892L274.437 409.92L248.203 421.273L224.794 383.686L231.89 314.892Z" fill="#92E3A9" stroke="#263238" stroke-linecap="round" stroke-linejoin="round"/>
<path d="M75.8793 409.562L114.169 445.371L103.532 457.785L47.8683 423.254L54.2606 406.238" fill="#92E3A9"/>
<path d="M75.8793 409.562L114.169 445.371L103.532 457.785L47.8683 423.254L54.2606 406.238" stroke="#263238" stroke-linecap="round" stroke-linejoin="round"/>
<path d="M107.79 443.249C109.349 442.405 135.443 436.154 135.801 439.35C136.159 442.546 143.957 446.087 147.499 446.087C151.04 446.087 154.594 443.249 155.297 447.507C156 451.764 152.114 452.109 148.905 452.467C145.696 452.825 134.727 449.271 134.727 449.271C134.727 449.271 124.499 457.785 120.191 459.92C115.882 462.055 108.135 461.327 105.297 459.204C102.458 457.082 98.572 448.21 107.79 443.249Z" fill="white" stroke="#263238" stroke-linecap="round" stroke-linejoin="round"/>
<path d="M131.889 438.992C131.889 438.992 141.822 436.154 143.944 437.228C146.067 438.302 147.141 459.562 147.141 459.562C147.141 459.562 146.067 461.685 143.944 459.562C141.822 457.44 134.74 441.421 134.74 441.421" fill="white"/>
<path d="M131.889 438.992C131.889 438.992 141.822 436.154 143.944 437.228C146.067 438.302 147.141 459.562 147.141 459.562C147.141 459.562 146.067 461.685 143.944 459.562C141.822 457.44 134.74 441.421 134.74 441.421" stroke="#263238" stroke-linecap="round" stroke-linejoin="round"/>
<path d="M126.941 439.708C126.941 439.708 137.169 437.228 139.342 441.127C141.515 445.026 146.795 462.401 142.538 463.104C138.281 463.807 136.862 458.143 136.862 458.143L130.124 445.729L125.522 445.026" fill="white"/>
<path d="M126.941 439.708C126.941 439.708 137.169 437.228 139.342 441.127C141.515 445.026 146.795 462.401 142.538 463.104C138.281 463.807 136.862 458.143 136.862 458.143L130.124 445.729L125.522 445.026" stroke="#263238" stroke-linecap="round" stroke-linejoin="round"/>
<path d="M123.387 442.891C123.387 442.891 128.36 440.769 130.84 442.546C133.32 444.323 144.673 462.401 142.538 463.155C140.403 463.909 135.443 463.513 134.74 462.094C134.036 460.675 124.806 448.619 124.806 448.619" fill="white"/>
<path d="M123.387 442.891C123.387 442.891 128.36 440.769 130.84 442.546C133.32 444.323 144.673 462.401 142.538 463.155C140.403 463.909 135.443 463.513 134.74 462.094C134.036 460.675 124.806 448.619 124.806 448.619" stroke="#263238" stroke-linecap="round" stroke-linejoin="round"/>
<path d="M119.846 448.926C119.846 448.926 124.461 444.668 126.941 446.087C129.421 447.506 139.726 460.981 137.578 462.401C135.43 463.82 134.024 462.401 131.901 459.562C130.383 457.652 128.59 455.977 126.583 454.589L122.326 456.008" fill="white"/>
<path d="M119.846 448.926C119.846 448.926 124.461 444.668 126.941 446.087C129.421 447.506 139.726 460.981 137.578 462.401C135.43 463.82 134.024 462.401 131.901 459.562C130.383 457.652 128.59 455.977 126.583 454.589L122.326 456.008" stroke="#263238" stroke-linecap="round" stroke-linejoin="round"/>
<path d="M241.772 400.51L219.322 447.89L233.769 455.522L276.227 410.533L264.043 397.046" fill="#92E3A9"/>
<path d="M241.772 400.51L219.322 447.89L233.769 455.522L276.227 410.533L264.043 397.046" stroke="#263238" stroke-linecap="round" stroke-linejoin="round"/>
<path d="M230.56 443.249C229 442.405 202.894 436.154 202.549 439.35C202.204 442.546 194.392 446.087 190.838 446.087C187.284 446.087 183.756 443.249 183.04 447.507C182.324 451.764 186.236 452.109 189.432 452.467C192.628 452.825 203.61 449.271 203.61 449.271C203.61 449.271 213.838 457.785 218.146 459.92C222.455 462.055 230.202 461.327 233.04 459.204C235.878 457.082 239.778 448.21 230.56 443.249Z" fill="white" stroke="#263238" stroke-linecap="round" stroke-linejoin="round"/>
<path d="M206.448 438.992C206.448 438.992 196.515 436.154 194.392 437.228C192.27 438.302 191.196 459.562 191.196 459.562C191.196 459.562 192.257 461.685 194.392 459.562C196.527 457.44 203.61 441.421 203.61 441.421" fill="white"/>
<path d="M206.448 438.992C206.448 438.992 196.515 436.154 194.392 437.228C192.27 438.302 191.196 459.562 191.196 459.562C191.196 459.562 192.257 461.685 194.392 459.562C196.527 457.44 203.61 441.421 203.61 441.421" stroke="#263238" stroke-linecap="round" stroke-linejoin="round"/>
<path d="M211.409 439.708C211.409 439.708 201.181 437.228 198.995 441.127C196.809 445.026 191.554 462.401 195.812 463.155C200.069 463.909 201.475 458.194 201.475 458.194L208.213 445.781L212.828 445.077" fill="white"/>
<path d="M211.409 439.708C211.409 439.708 201.181 437.228 198.995 441.127C196.809 445.026 191.554 462.401 195.812 463.155C200.069 463.909 201.475 458.194 201.475 458.194L208.213 445.781L212.828 445.077" stroke="#263238" stroke-linecap="round" stroke-linejoin="round"/>
<path d="M214.988 442.891C214.988 442.891 210.028 440.769 207.548 442.546C205.068 444.323 193.677 462.401 195.812 463.155C197.947 463.909 202.894 463.513 203.61 462.094C204.326 460.675 213.531 448.619 213.531 448.619" fill="white"/>
<path d="M214.988 442.891C214.988 442.891 210.028 440.769 207.548 442.546C205.068 444.323 193.677 462.401 195.812 463.155C197.947 463.909 202.894 463.513 203.61 462.094C204.326 460.675 213.531 448.619 213.531 448.619" stroke="#263238" stroke-linecap="round" stroke-linejoin="round"/>
<path d="M218.504 448.926C218.504 448.926 213.889 444.668 211.409 446.087C208.929 447.506 198.624 460.981 200.772 462.401C202.92 463.82 204.313 462.401 206.448 459.562C207.967 457.652 209.759 455.977 211.767 454.589L216.024 456.008" fill="white"/>
<path d="M218.504 448.926C218.504 448.926 213.889 444.668 211.409 446.087C208.929 447.506 198.624 460.981 200.772 462.401C202.92 463.82 204.313 462.401 206.448 459.562C207.967 457.652 209.759 455.977 211.767 454.589L216.024 456.008" stroke="#263238" stroke-linecap="round" stroke-linejoin="round"/>
<path d="M297.654 138.695H214.554C210.701 138.695 207.005 140.224 204.28 142.948C201.554 145.671 200.021 149.365 200.018 153.218V177.509C200.008 179.422 200.375 181.318 201.1 183.089C201.824 184.86 202.891 186.47 204.239 187.828C205.587 189.185 207.19 190.264 208.956 191C210.721 191.737 212.615 192.118 214.528 192.122H224.756L210.808 210.365L242.168 192.122H297.654C299.563 192.117 301.452 191.736 303.213 191C304.975 190.265 306.575 189.19 307.921 187.837C309.267 186.484 310.334 184.878 311.06 183.113C311.785 181.347 312.156 179.456 312.151 177.547V153.256C312.158 149.403 310.635 145.705 307.916 142.975C305.198 140.244 301.507 138.705 297.654 138.695V138.695Z" fill="white" stroke="#263238" stroke-miterlimit="10"/>
<path d="M244.687 167.077C244.69 167.747 244.493 168.403 244.122 168.962C243.752 169.521 243.223 169.957 242.605 170.216C241.986 170.474 241.304 170.543 240.646 170.414C239.988 170.284 239.383 169.963 238.908 169.489C238.433 169.016 238.109 168.413 237.977 167.755C237.846 167.097 237.912 166.416 238.168 165.796C238.424 165.176 238.858 164.646 239.416 164.273C239.973 163.9 240.629 163.701 241.299 163.701C242.195 163.701 243.055 164.057 243.69 164.689C244.325 165.322 244.684 166.18 244.687 167.077V167.077Z" fill="#263238"/>
<path d="M259.466 167.077C259.469 167.748 259.272 168.404 258.9 168.964C258.529 169.523 258 169.959 257.381 170.217C256.761 170.475 256.079 170.543 255.42 170.413C254.762 170.282 254.157 169.959 253.683 169.485C253.208 169.01 252.885 168.405 252.755 167.747C252.624 167.089 252.693 166.406 252.951 165.787C253.209 165.167 253.645 164.638 254.204 164.267C254.763 163.896 255.42 163.699 256.091 163.701C256.986 163.701 257.845 164.057 258.477 164.69C259.11 165.323 259.466 166.181 259.466 167.077Z" fill="#263238"/>
<path d="M274.245 167.077C274.245 167.744 274.047 168.397 273.676 168.952C273.305 169.507 272.778 169.939 272.162 170.195C271.545 170.45 270.866 170.517 270.211 170.387C269.557 170.257 268.955 169.935 268.483 169.463C268.011 168.991 267.69 168.39 267.56 167.735C267.429 167.08 267.496 166.402 267.752 165.785C268.007 165.168 268.44 164.641 268.995 164.27C269.55 163.899 270.202 163.701 270.87 163.701C271.765 163.701 272.624 164.057 273.256 164.69C273.889 165.323 274.245 166.181 274.245 167.077Z" fill="#263238"/>
<path d="M467.42 462.81H312.548V469.061H467.42V462.81Z" fill="white" stroke="#263238" stroke-linecap="round" stroke-linejoin="round"/>
<path d="M491.212 462.81H356.22V469.061H491.212V462.81Z" fill="white" stroke="#263238" stroke-linecap="round" stroke-linejoin="round"/>
<path d="M493.833 451.7H364.683L378.606 353.092H507.756L493.833 451.7Z" fill="white" stroke="#263238" stroke-linecap="round" stroke-linejoin="round"/>
<path d="M499.177 451.7H370.027L383.95 353.092H513.099L499.177 451.7Z" fill="#263238" stroke="#263238" stroke-linecap="round" stroke-linejoin="round"/>
<path d="M459.596 405.867L472.56 469.049H439.23L426.279 405.867H459.596ZM436.993 424.622C437.056 424.879 437.204 425.107 437.413 425.269C437.622 425.432 437.879 425.519 438.143 425.517L457.026 425.338C457.203 425.335 457.377 425.293 457.536 425.214C457.694 425.135 457.832 425.021 457.94 424.881C458.048 424.741 458.124 424.578 458.16 424.405C458.197 424.232 458.194 424.052 458.151 423.881L456.451 416.798C456.388 416.54 456.241 416.31 456.032 416.146C455.824 415.981 455.566 415.891 455.3 415.89L436.418 416.069C436.24 416.072 436.066 416.115 435.907 416.194C435.749 416.273 435.61 416.387 435.501 416.526C435.392 416.666 435.315 416.828 435.277 417.001C435.239 417.175 435.24 417.354 435.28 417.527L436.993 424.622Z" fill="white" stroke="#263238" stroke-linecap="round" stroke-linejoin="round"/>
<path d="M238.346 462.81H83.4734V469.061H238.346V462.81Z" fill="white" stroke="#263238" stroke-linecap="round" stroke-linejoin="round"/>
<path d="M262.138 462.81H127.146V469.061H262.138V462.81Z" fill="white" stroke="#263238" stroke-linecap="round" stroke-linejoin="round"/>
<path d="M264.759 451.7H135.609L149.531 353.092H278.681L264.759 451.7Z" fill="white" stroke="#263238" stroke-linecap="round" stroke-linejoin="round"/>
<path d="M270.103 451.7H140.953L154.875 353.092H284.025L270.103 451.7Z" fill="#263238" stroke="#263238" stroke-linecap="round" stroke-linejoin="round"/>
<path d="M230.535 405.867L243.485 469.049H210.156L197.205 405.867H230.535ZM207.919 424.622C207.984 424.878 208.132 425.105 208.341 425.267C208.549 425.429 208.805 425.517 209.069 425.517L227.952 425.338C228.129 425.335 228.304 425.292 228.462 425.213C228.621 425.134 228.76 425.021 228.869 424.881C228.978 424.741 229.054 424.579 229.093 424.406C229.131 424.233 229.13 424.053 229.09 423.881L227.377 416.798C227.316 416.539 227.169 416.308 226.96 416.143C226.751 415.978 226.492 415.889 226.226 415.89L207.343 416.069C207.166 416.072 206.992 416.114 206.834 416.193C206.676 416.273 206.537 416.386 206.429 416.527C206.321 416.667 206.246 416.829 206.209 417.002C206.173 417.176 206.176 417.355 206.218 417.527L207.919 424.622Z" fill="white" stroke="#263238" stroke-linecap="round" stroke-linejoin="round"/>
<path d="M554.739 469.049H3.82538V475.236H554.739V469.049Z" fill="#263238" stroke="#263238" stroke-linecap="round" stroke-linejoin="round"/>
</svg>
