<?xml version="1.0" standalone="no"?><!DOCTYPE svg PUBLIC "-//W3C//DTD SVG 1.1//EN" "http://www.w3.org/Graphics/SVG/1.1/DTD/svg11.dtd"><svg t="1618683530551" class="icon" viewBox="0 0 1024 1024" version="1.1" xmlns="http://www.w3.org/2000/svg" p-id="2003" xmlns:xlink="http://www.w3.org/1999/xlink" width="200" height="200"><defs><style type="text/css"></style></defs><path d="M810.666667 85.333333h-170.666667c-25.6 0-42.666667 17.066667-42.666667 42.666667s17.066667 42.666667 42.666667 42.666667h170.666667c25.6 0 42.666667 17.066667 42.666666 42.666666v597.333334c0 25.6-17.066667 42.666667-42.666666 42.666666h-170.666667c-25.6 0-42.666667 17.066667-42.666667 42.666667s17.066667 42.666667 42.666667 42.666667h170.666667c72.533333 0 128-55.466667 128-128V213.333333c0-72.533333-55.466667-128-128-128z" p-id="2004"></path><path d="M678.4 529.066667c4.266667-8.533333 4.266667-21.333333 0-34.133334-4.266667-4.266667-4.266667-8.533333-8.533333-12.8l-213.333334-213.333333c-17.066667-17.066667-42.666667-17.066667-59.733333 0s-17.066667 42.666667 0 59.733333l140.8 140.8H128c-25.6 0-42.666667 17.066667-42.666667 42.666667s17.066667 42.666667 42.666667 42.666667h409.6l-140.8 140.8c-17.066667 17.066667-17.066667 42.666667 0 59.733333 8.533333 8.533333 17.066667 12.8 29.866667 12.8s21.333333-4.266667 29.866666-12.8l213.333334-213.333333c4.266667-4.266667 8.533333-8.533333 8.533333-12.8z" p-id="2005"></path></svg>