<svg width="374" height="109" viewBox="0 0 374 109" fill="none" xmlns="http://www.w3.org/2000/svg">
<path d="M81.6445 47.7461C82.0456 44.8294 80.5326 42.6966 77.1055 41.3477L72.375 39.625L70.7891 38.9414C65.4661 36.5169 62.9779 33.1081 63.3242 28.7148C63.5065 26.5091 64.263 24.5586 65.5938 22.8633C66.9245 21.168 68.6836 19.8646 70.8711 18.9531C73.0768 18.0234 75.4193 17.5859 77.8984 17.6406C80.3047 17.6953 82.4466 18.2331 84.3242 19.2539C86.2201 20.2747 87.6602 21.7057 88.6445 23.5469C89.6289 25.3698 90.0664 27.4297 89.957 29.7266L84.7891 29.6992C84.9714 27.2565 84.4245 25.3698 83.1484 24.0391C81.8724 22.6901 80.0495 21.9974 77.6797 21.9609C75.1823 21.9245 73.0951 22.5078 71.418 23.7109C69.7409 24.9141 68.7747 26.5547 68.5195 28.6328C68.1549 31.349 69.8229 33.4089 73.5234 34.8125L77.5977 36.2617L79.6484 37.1367C84.7891 39.5065 87.168 43.0247 86.7852 47.6914C86.5846 49.9336 85.8281 51.875 84.5156 53.5156C83.2031 55.138 81.4167 56.3958 79.1562 57.2891C76.9141 58.1823 74.4987 58.6016 71.9102 58.5469C69.4128 58.5286 67.125 58 65.0469 56.9609C62.987 55.9036 61.4193 54.4635 60.3438 52.6406C59.2682 50.8177 58.7943 48.7487 58.9219 46.4336L64.0625 46.4609C63.8984 48.8307 64.5365 50.7174 65.9766 52.1211C67.4349 53.5065 69.4857 54.2174 72.1289 54.2539C74.7721 54.2904 76.9505 53.7161 78.6641 52.5312C80.3776 51.3464 81.3711 49.7513 81.6445 47.7461ZM109.152 58C109.025 57.4714 108.961 56.9518 108.961 56.4414L109.043 54.8828C106.327 57.3984 103.447 58.6198 100.402 58.5469C97.7956 58.5104 95.6719 57.6901 94.0312 56.0859C92.4089 54.4635 91.6706 52.4401 91.8164 50.0156C91.9987 46.8802 93.3659 44.4375 95.918 42.6875C98.4883 40.9193 101.861 40.0352 106.035 40.0352L111.203 40.0625L111.531 37.7109C111.714 35.9427 111.367 34.5482 110.492 33.5273C109.635 32.4883 108.341 31.9505 106.609 31.9141C104.914 31.8776 103.41 32.2969 102.098 33.1719C100.803 34.0286 100.01 35.168 99.7188 36.5898L94.7422 36.6172C94.9062 34.8854 95.5807 33.3542 96.7656 32.0234C97.9505 30.6745 99.4727 29.6354 101.332 28.9062C103.191 28.1589 105.115 27.8034 107.102 27.8398C110.182 27.9128 112.579 28.8516 114.293 30.6562C116.007 32.4427 116.727 34.8216 116.453 37.793L114.047 52.4492L113.91 54.5547C113.874 55.5573 113.983 56.5508 114.238 57.5352L114.184 58H109.152ZM101.387 54.1719C102.973 54.2083 104.467 53.8346 105.871 53.0508C107.293 52.2487 108.514 51.1458 109.535 49.7422L110.602 43.6445L106.855 43.6172C103.738 43.6172 101.35 44.1094 99.6914 45.0938C98.0326 46.0781 97.0938 47.4727 96.875 49.2773C96.7109 50.6628 97.0299 51.8203 97.832 52.75C98.6523 53.6615 99.8372 54.1354 101.387 54.1719ZM126.27 58H121.348L128.621 16H133.57L126.27 58ZM153.148 55.0742C150.833 57.4622 147.889 58.6198 144.316 58.5469C141.491 58.474 139.395 57.4622 138.027 55.5117C136.678 53.5612 136.177 50.8997 136.523 47.5273L139.695 28.4141H144.645L141.445 47.6094C141.354 48.4115 141.336 49.1953 141.391 49.9609C141.482 51.2734 141.874 52.3034 142.566 53.0508C143.259 53.7982 144.225 54.1992 145.465 54.2539C149.001 54.3633 151.736 52.9323 153.668 49.9609L157.387 28.4141H162.336L157.195 58H152.52L153.148 55.0742ZM177.676 21.25L176.418 28.4141H181.805L181.121 32.3242H175.762L172.672 50.7266C172.617 51.2005 172.608 51.638 172.645 52.0391C172.772 53.4609 173.547 54.1719 174.969 54.1719C175.57 54.1719 176.372 54.0807 177.375 53.8984L176.992 58.0273C175.807 58.3555 174.604 58.5195 173.383 58.5195C171.414 58.4831 169.938 57.763 168.953 56.3594C167.969 54.9375 167.586 53.0326 167.805 50.6445L170.812 32.3242H165.59L166.273 28.4141H171.496L172.754 21.25H177.676ZM195.449 58.5469C191.767 58.474 188.887 57.1159 186.809 54.4727C184.73 51.8294 183.855 48.4479 184.184 44.3281L184.32 43.1523C184.63 40.2174 185.496 37.5378 186.918 35.1133C188.358 32.6888 190.108 30.8659 192.168 29.6445C194.228 28.4049 196.452 27.8125 198.84 27.8672C201.884 27.9401 204.272 28.9518 206.004 30.9023C207.736 32.8529 208.684 35.4961 208.848 38.832C208.902 40.0169 208.866 41.2018 208.738 42.3867L208.438 44.6562H189.105C188.777 47.3359 189.215 49.6146 190.418 51.4922C191.639 53.3698 193.453 54.3451 195.859 54.418C198.776 54.4909 201.474 53.1784 203.953 50.4805L206.797 52.8867C205.557 54.6732 203.953 56.0768 201.984 57.0977C200.034 58.1003 197.855 58.5833 195.449 58.5469ZM198.594 31.9961C196.552 31.9414 194.766 32.6341 193.234 34.0742C191.721 35.5143 190.518 37.6562 189.625 40.5L204.008 40.5273L204.117 40.0898C204.409 37.793 204.035 35.888 202.996 34.375C201.975 32.8438 200.508 32.0508 198.594 31.9961ZM244.203 55.0742C241.888 57.4622 238.944 58.6198 235.371 58.5469C232.546 58.474 230.449 57.4622 229.082 55.5117C227.733 53.5612 227.232 50.8997 227.578 47.5273L230.75 28.4141H235.699L232.5 47.6094C232.409 48.4115 232.391 49.1953 232.445 49.9609C232.536 51.2734 232.928 52.3034 233.621 53.0508C234.314 53.7982 235.28 54.1992 236.52 54.2539C240.056 54.3633 242.79 52.9323 244.723 49.9609L248.441 28.4141H253.391L248.25 58H243.574L244.203 55.0742ZM265.477 28.3867L264.766 32.1328C267.427 29.2161 270.453 27.7943 273.844 27.8672C276.633 27.9401 278.693 28.9062 280.023 30.7656C281.354 32.625 281.846 35.2409 281.5 38.6133L278.273 58H273.324L276.578 38.5312C276.688 37.638 276.697 36.8086 276.605 36.043C276.296 33.4909 274.792 32.1875 272.094 32.1328C269.122 32.0781 266.516 33.6641 264.273 36.8906L260.609 58H255.66L260.801 28.4141L265.477 28.3867ZM302.336 27.8672C304.815 27.9036 306.939 28.5781 308.707 29.8906C310.475 31.2031 311.779 33.0169 312.617 35.332C313.474 37.6289 313.766 40.1445 313.492 42.8789L313.438 43.4805C313.091 46.3607 312.234 48.9674 310.867 51.3008C309.5 53.6159 307.732 55.4206 305.562 56.7148C303.393 58.0091 301.014 58.6198 298.426 58.5469C295.965 58.5104 293.841 57.8359 292.055 56.5234C290.286 55.2109 288.992 53.4245 288.172 51.1641C287.352 48.9036 287.06 46.4154 287.297 43.6992C287.57 40.6367 288.4 37.8841 289.785 35.4414C291.171 32.9987 292.948 31.112 295.117 29.7812C297.305 28.4323 299.711 27.7943 302.336 27.8672ZM292.273 43.7266C292.146 44.875 292.146 46.069 292.273 47.3086C292.456 49.4596 293.094 51.1732 294.188 52.4492C295.299 53.7253 296.776 54.3906 298.617 54.4453C300.258 54.5 301.771 54.099 303.156 53.2422C304.542 52.3672 305.708 51.0547 306.656 49.3047C307.604 47.5547 308.215 45.6133 308.488 43.4805C308.634 41.8034 308.661 40.3906 308.57 39.2422C308.352 37.0365 307.686 35.2956 306.574 34.0195C305.462 32.7435 303.986 32.069 302.145 31.9961C299.592 31.9414 297.423 32.944 295.637 35.0039C293.85 37.0638 292.747 39.7617 292.328 43.0977L292.273 43.7266Z" fill="#0D1B2A"/>
<path d="M82.8449 79.852L82.4512 82.1242H84.2313L84.0918 82.9281H82.3117L81.3273 88.8508L81.3109 89.3594C81.3109 89.9555 81.5844 90.2617 82.1313 90.2781C82.3008 90.2836 82.566 90.2645 82.927 90.2207L82.8859 91.0246C82.5633 91.1176 82.2352 91.1586 81.9016 91.1477C81.3273 91.1367 80.909 90.9371 80.6465 90.5488C80.384 90.1551 80.2883 89.5863 80.3594 88.8426L81.3355 82.9281H79.7441L79.8918 82.1242H81.4668L81.8688 79.852H82.8449ZM84.7973 86.4801C84.8957 85.6215 85.1582 84.8367 85.5848 84.1258C86.0113 83.4094 86.5418 82.8652 87.1762 82.4934C87.816 82.1215 88.5078 81.9438 89.2516 81.9602C89.9844 81.9711 90.6078 82.1734 91.1219 82.5672C91.6414 82.9555 92.0188 83.4887 92.2539 84.1668C92.4945 84.8395 92.5766 85.5859 92.5 86.4063L92.4836 86.5621C92.3195 87.9621 91.8219 89.0859 90.9906 89.9336C90.1648 90.7813 89.1723 91.1914 88.0129 91.1641C87.0176 91.1477 86.2219 90.7813 85.6258 90.0648C85.0297 89.3484 84.7371 88.4023 84.7481 87.2266L84.7727 86.759L84.7973 86.4801ZM85.7488 86.759C85.6777 87.4098 85.7242 88.0113 85.8883 88.5637C86.0578 89.1105 86.3258 89.5398 86.6922 89.8516C87.0586 90.1633 87.5152 90.3273 88.0621 90.3438C88.6527 90.3547 89.1914 90.2043 89.6781 89.8926C90.1703 89.5809 90.575 89.1406 90.8922 88.5719C91.2094 88.0031 91.4145 87.3742 91.5074 86.6852L91.532 86.4145C91.6305 85.359 91.4664 84.4977 91.0398 83.8305C90.6188 83.1578 90.0063 82.8133 89.2023 82.7969C88.3273 82.7695 87.5699 83.1086 86.9301 83.8141C86.2957 84.5141 85.9074 85.4465 85.7652 86.6113L85.7488 86.759ZM94.1734 86.5375C94.2992 85.6078 94.5535 84.7848 94.9363 84.0684C95.3191 83.3465 95.7867 82.8105 96.3391 82.4605C96.8969 82.1105 97.5203 81.9438 98.2094 81.9602C98.7344 81.9711 99.2129 82.0941 99.6449 82.3293C100.077 82.559 100.419 82.909 100.67 83.3793L101.573 78.4H102.541L100.35 91H99.4398L99.6613 89.8188C98.8902 90.7484 97.9332 91.1969 96.7902 91.1641C95.9645 91.1422 95.3164 90.8223 94.8461 90.2043C94.3812 89.5809 94.1379 88.7441 94.116 87.6941C94.1051 87.3551 94.1187 87.027 94.157 86.7098L94.1734 86.5375ZM95.1578 86.7016C95.1141 87.068 95.0977 87.459 95.1086 87.8746C95.1305 88.6238 95.3027 89.2145 95.6254 89.6465C95.9535 90.073 96.4184 90.2973 97.0199 90.3191C97.627 90.3355 98.1602 90.1961 98.6195 89.9008C99.0789 89.6055 99.4672 89.2117 99.7844 88.7195L100.498 84.5359C100.339 84.0055 100.077 83.5898 99.7105 83.2891C99.3496 82.9828 98.8875 82.8215 98.3242 82.8051C97.493 82.7777 96.7984 83.0977 96.2406 83.7648C95.6883 84.4266 95.3328 85.348 95.1742 86.5293L95.1578 86.7016ZM108.439 91C108.411 90.7922 108.403 90.5844 108.414 90.3766L108.488 89.7613C108.078 90.2043 107.607 90.5516 107.077 90.8031C106.552 91.0547 105.983 91.175 105.371 91.1641C104.621 91.1531 104.012 90.918 103.541 90.4586C103.077 89.9938 102.869 89.4113 102.918 88.7113C102.962 88.1262 103.161 87.6203 103.517 87.1938C103.878 86.7617 104.389 86.4281 105.051 86.193C105.713 85.9523 106.454 85.832 107.274 85.832L109.087 85.8402L109.234 84.823C109.3 84.216 109.169 83.7293 108.841 83.3629C108.513 82.9965 108.029 82.8023 107.389 82.7805C106.743 82.7695 106.18 82.9309 105.699 83.2645C105.223 83.5926 104.925 84.0273 104.805 84.5688H103.845C103.954 83.7922 104.354 83.1605 105.043 82.6738C105.732 82.1816 106.546 81.941 107.487 81.952C108.4 81.9738 109.103 82.25 109.595 82.7805C110.093 83.3109 110.295 84 110.202 84.8477L109.464 89.3102L109.398 90.0238C109.382 90.3191 109.404 90.6117 109.464 90.9016L109.448 91H108.439ZM105.535 90.3027C106.136 90.3246 106.711 90.1824 107.257 89.8762C107.81 89.5645 108.266 89.1242 108.627 88.5555L108.964 86.5949L107.397 86.5867C106.402 86.5867 105.589 86.7645 104.961 87.1199C104.332 87.4699 103.984 87.973 103.919 88.6293C103.87 89.1105 103.995 89.507 104.296 89.8188C104.602 90.1305 105.015 90.2918 105.535 90.3027ZM121.391 88.6867C121.479 87.932 121.02 87.3852 120.013 87.0461L118.602 86.6277C117.306 86.1902 116.694 85.4602 116.765 84.4375C116.803 83.6992 117.142 83.1004 117.782 82.641C118.427 82.1762 119.193 81.9492 120.079 81.9602C120.948 81.9711 121.654 82.2172 122.195 82.6984C122.737 83.1742 122.988 83.8113 122.95 84.6098H121.982C122.015 84.0793 121.848 83.6473 121.482 83.3137C121.121 82.9801 120.639 82.8078 120.038 82.7969C119.414 82.7969 118.889 82.9445 118.463 83.2398C118.036 83.5297 117.796 83.9152 117.741 84.3965C117.659 85.102 118.091 85.5969 119.037 85.8813L120.062 86.1766L120.612 86.3652C121.848 86.8301 122.43 87.5875 122.359 88.6375C122.316 89.3484 122.007 89.9336 121.432 90.393C120.864 90.8469 120.128 91.1012 119.226 91.1559L118.889 91.1641C118.293 91.1531 117.755 91.0383 117.273 90.8195C116.792 90.5953 116.423 90.2836 116.166 89.8844C115.909 89.4852 115.797 89.0258 115.83 88.5063L116.806 88.5145C116.806 89.0723 116.995 89.5125 117.372 89.8352C117.749 90.1578 118.269 90.3246 118.93 90.3355C119.587 90.3355 120.145 90.1879 120.604 89.8926C121.063 89.5918 121.326 89.1898 121.391 88.6867ZM130.005 89.8844C129.299 90.7703 128.326 91.1969 127.084 91.1641C126.248 91.1477 125.624 90.8469 125.214 90.2617C124.804 89.6711 124.656 88.8535 124.771 87.809L125.723 82.1242H126.691L125.747 87.8336C125.714 88.1289 125.712 88.4215 125.739 88.7113C125.777 89.2145 125.928 89.6027 126.19 89.8762C126.453 90.1496 126.814 90.2945 127.273 90.3109C127.929 90.3383 128.536 90.1879 129.094 89.8598C129.652 89.5262 130.013 89.0914 130.177 88.5555L131.276 82.1242H132.261L130.718 91H129.767L130.005 89.8844ZM138.675 91C138.648 90.7922 138.64 90.5844 138.651 90.3766L138.725 89.7613C138.314 90.2043 137.844 90.5516 137.314 90.8031C136.789 91.0547 136.22 91.175 135.607 91.1641C134.858 91.1531 134.248 90.918 133.778 90.4586C133.313 89.9938 133.105 89.4113 133.155 88.7113C133.198 88.1262 133.398 87.6203 133.754 87.1938C134.114 86.7617 134.626 86.4281 135.287 86.193C135.949 85.9523 136.69 85.832 137.511 85.832L139.323 85.8402L139.471 84.823C139.537 84.216 139.405 83.7293 139.077 83.3629C138.749 82.9965 138.265 82.8023 137.625 82.7805C136.98 82.7695 136.417 82.9309 135.936 83.2645C135.46 83.5926 135.162 84.0273 135.041 84.5688H134.082C134.191 83.7922 134.59 83.1605 135.279 82.6738C135.968 82.1816 136.783 81.941 137.724 81.952C138.637 81.9738 139.34 82.25 139.832 82.7805C140.33 83.3109 140.532 84 140.439 84.8477L139.701 89.3102L139.635 90.0238C139.619 90.3191 139.641 90.6117 139.701 90.9016L139.684 91H138.675ZM135.771 90.3027C136.373 90.3246 136.947 90.1824 137.494 89.8762C138.046 89.5645 138.503 89.1242 138.864 88.5555L139.2 86.5949L137.634 86.5867C136.638 86.5867 135.826 86.7645 135.197 87.1199C134.568 87.4699 134.221 87.973 134.155 88.6293C134.106 89.1105 134.232 89.507 134.533 89.8188C134.839 90.1305 135.252 90.2918 135.771 90.3027ZM151.628 88.6867C151.716 87.932 151.256 87.3852 150.25 87.0461L148.839 86.6277C147.543 86.1902 146.93 85.4602 147.002 84.4375C147.04 83.6992 147.379 83.1004 148.019 82.641C148.664 82.1762 149.43 81.9492 150.316 81.9602C151.185 81.9711 151.891 82.2172 152.432 82.6984C152.973 83.1742 153.225 83.8113 153.187 84.6098H152.219C152.252 84.0793 152.085 83.6473 151.718 83.3137C151.357 82.9801 150.876 82.8078 150.275 82.7969C149.651 82.7969 149.126 82.9445 148.7 83.2398C148.273 83.5297 148.032 83.9152 147.978 84.3965C147.896 85.102 148.328 85.5969 149.274 85.8813L150.299 86.1766L150.849 86.3652C152.085 86.8301 152.667 87.5875 152.596 88.6375C152.552 89.3484 152.243 89.9336 151.669 90.393C151.1 90.8469 150.365 91.1012 149.463 91.1559L149.126 91.1641C148.53 91.1531 147.991 91.0383 147.51 90.8195C147.029 90.5953 146.66 90.2836 146.403 89.8844C146.146 89.4852 146.034 89.0258 146.066 88.5063L147.043 88.5145C147.043 89.0723 147.231 89.5125 147.609 89.8352C147.986 90.1578 148.505 90.3246 149.167 90.3355C149.823 90.3355 150.381 90.1879 150.841 89.8926C151.3 89.5918 151.563 89.1898 151.628 88.6867ZM159.872 91C159.845 90.7922 159.837 90.5844 159.848 90.3766L159.921 89.7613C159.511 90.2043 159.041 90.5516 158.511 90.8031C157.986 91.0547 157.417 91.175 156.804 91.1641C156.055 91.1531 155.445 90.918 154.975 90.4586C154.51 89.9938 154.302 89.4113 154.352 88.7113C154.395 88.1262 154.595 87.6203 154.95 87.1938C155.311 86.7617 155.823 86.4281 156.484 86.193C157.146 85.9523 157.887 85.832 158.707 85.832L160.52 85.8402L160.668 84.823C160.734 84.216 160.602 83.7293 160.274 83.3629C159.946 82.9965 159.462 82.8023 158.822 82.7805C158.177 82.7695 157.614 82.9309 157.132 83.2645C156.657 83.5926 156.359 84.0273 156.238 84.5688H155.279C155.388 83.7922 155.787 83.1605 156.476 82.6738C157.165 82.1816 157.98 81.941 158.921 81.952C159.834 81.9738 160.537 82.25 161.029 82.7805C161.527 83.3109 161.729 84 161.636 84.8477L160.898 89.3102L160.832 90.0238C160.816 90.3191 160.837 90.6117 160.898 90.9016L160.881 91H159.872ZM156.968 90.3027C157.57 90.3246 158.144 90.1824 158.691 89.8762C159.243 89.5645 159.7 89.1242 160.061 88.5555L160.397 86.5949L158.83 86.5867C157.835 86.5867 157.023 86.7645 156.394 87.1199C155.765 87.4699 155.418 87.973 155.352 88.6293C155.303 89.1105 155.429 89.507 155.73 89.8188C156.036 90.1305 156.449 90.2918 156.968 90.3027ZM169.052 89.8844C168.346 90.7703 167.373 91.1969 166.131 91.1641C165.295 91.1477 164.671 90.8469 164.261 90.2617C163.851 89.6711 163.703 88.8535 163.818 87.809L164.77 82.1242H165.737L164.794 87.8336C164.761 88.1289 164.759 88.4215 164.786 88.7113C164.824 89.2145 164.975 89.6027 165.237 89.8762C165.5 90.1496 165.861 90.2945 166.32 90.3109C166.976 90.3383 167.583 90.1879 168.141 89.8598C168.699 89.5262 169.06 89.0914 169.224 88.5555L170.323 82.1242H171.307L169.765 91H168.814L169.052 89.8844ZM169.552 78.4L170.791 78.4082L168.592 80.6887L167.673 80.6969L169.552 78.4ZM172.595 86.5375C172.721 85.6078 172.975 84.7848 173.358 84.0684C173.741 83.3465 174.209 82.8105 174.761 82.4605C175.319 82.1105 175.942 81.9438 176.631 81.9602C177.156 81.9711 177.635 82.0941 178.067 82.3293C178.499 82.559 178.841 82.909 179.092 83.3793L179.995 78.4H180.962L178.772 91H177.862L178.083 89.8188C177.312 90.7484 176.355 91.1969 175.212 91.1641C174.386 91.1422 173.738 90.8223 173.268 90.2043C172.803 89.5809 172.56 88.7441 172.538 87.6941C172.527 87.3551 172.541 87.027 172.579 86.7098L172.595 86.5375ZM173.58 86.7016C173.536 87.068 173.52 87.459 173.53 87.8746C173.552 88.6238 173.725 89.2145 174.047 89.6465C174.375 90.073 174.84 90.2973 175.442 90.3191C176.049 90.3355 176.582 90.1961 177.041 89.9008C177.501 89.6055 177.889 89.2117 178.206 88.7195L178.92 84.5359C178.761 84.0055 178.499 83.5898 178.132 83.2891C177.771 82.9828 177.309 82.8215 176.746 82.8051C175.915 82.7777 175.22 83.0977 174.662 83.7648C174.11 84.4266 173.755 85.348 173.596 86.5293L173.58 86.7016ZM184.859 91.1641C184.148 91.1531 183.533 90.9563 183.013 90.5734C182.494 90.1852 182.111 89.6602 181.865 88.9984C181.624 88.3313 181.539 87.6121 181.611 86.841L181.635 86.5621C181.712 85.7418 181.955 84.9625 182.365 84.2242C182.775 83.4805 183.295 82.9145 183.924 82.5262C184.553 82.1324 185.225 81.9438 185.942 81.9602C186.604 81.9711 187.161 82.1516 187.615 82.5016C188.075 82.8516 188.408 83.3383 188.616 83.9617C188.824 84.5852 188.889 85.2742 188.813 86.0289L188.747 86.6277H182.603L182.579 86.8246C182.496 87.4207 182.54 87.9922 182.71 88.5391C182.879 89.0805 183.155 89.5125 183.538 89.8352C183.927 90.1523 184.391 90.3164 184.933 90.3273C185.458 90.3438 185.931 90.2426 186.352 90.0238C186.773 89.8051 187.161 89.5125 187.517 89.1461L188.091 89.6137C187.692 90.1277 187.216 90.5188 186.664 90.7867C186.117 91.0492 185.515 91.175 184.859 91.1641ZM185.893 82.7969C185.182 82.7695 184.545 83.0211 183.981 83.5516C183.418 84.082 182.994 84.8285 182.71 85.791L187.861 85.7992L187.886 85.6762C187.984 84.8996 187.848 84.2324 187.476 83.6746C187.104 83.1113 186.576 82.8188 185.893 82.7969ZM189.321 93.2395L188.772 92.7883C189.401 92.0664 189.775 91.3445 189.896 90.6227L190.093 89.4578H191.044L190.864 90.6391C190.683 91.6672 190.169 92.534 189.321 93.2395ZM202.98 89.8844C202.274 90.7703 201.301 91.1969 200.059 91.1641C199.223 91.1477 198.599 90.8469 198.189 90.2617C197.779 89.6711 197.631 88.8535 197.746 87.809L198.698 82.1242H199.666L198.722 87.8336C198.689 88.1289 198.687 88.4215 198.714 88.7113C198.752 89.2145 198.903 89.6027 199.165 89.8762C199.428 90.1496 199.789 90.2945 200.248 90.3109C200.904 90.3383 201.511 90.1879 202.069 89.8598C202.627 89.5262 202.988 89.0914 203.152 88.5555L204.251 82.1242H205.236L203.693 91H202.742L202.98 89.8844ZM208.566 82.1242L208.287 83.568C209.086 82.4742 210.089 81.9383 211.298 81.9602C211.921 81.9711 212.438 82.127 212.848 82.4277C213.264 82.7285 213.521 83.1469 213.619 83.6828C214.024 83.1305 214.494 82.7039 215.03 82.4031C215.571 82.0969 216.159 81.9492 216.794 81.9602C217.636 81.9766 218.259 82.2555 218.664 82.7969C219.074 83.3328 219.244 84.0766 219.173 85.0281L219.156 85.2168L218.18 91H217.204L218.172 85.2004C218.205 84.8777 218.207 84.5715 218.18 84.2816C218.071 83.3137 217.518 82.8215 216.523 82.8051C215.856 82.7941 215.241 83.0129 214.677 83.4613C214.12 83.9043 213.77 84.4594 213.627 85.1266L212.61 91H211.634L212.618 85.1266C212.777 83.6172 212.222 82.8434 210.953 82.8051C210.324 82.7941 209.739 82.991 209.198 83.3957C208.656 83.8004 208.293 84.3035 208.107 84.9051L207.057 91H206.08L207.623 82.1242H208.566ZM230.608 89.8844C229.902 90.7703 228.929 91.1969 227.687 91.1641C226.851 91.1477 226.227 90.8469 225.817 90.2617C225.407 89.6711 225.259 88.8535 225.374 87.809L226.326 82.1242H227.294L226.35 87.8336C226.318 88.1289 226.315 88.4215 226.342 88.7113C226.38 89.2145 226.531 89.6027 226.793 89.8762C227.056 90.1496 227.417 90.2945 227.876 90.3109C228.532 90.3383 229.139 90.1879 229.697 89.8598C230.255 89.5262 230.616 89.0914 230.78 88.5555L231.879 82.1242H232.864L231.321 91H230.37L230.608 89.8844ZM231.108 78.4L232.347 78.4082L230.148 80.6887L229.23 80.6969L231.108 78.4ZM236.235 82.1242L235.94 83.6418C236.334 83.0949 236.787 82.6766 237.302 82.3867C237.821 82.0914 238.376 81.9492 238.967 81.9602C239.82 81.982 240.441 82.2801 240.829 82.8543C241.217 83.4285 241.354 84.2188 241.239 85.225L240.271 91H239.303L240.271 85.2086C240.304 84.8969 240.309 84.5961 240.287 84.3063C240.195 83.3328 239.664 82.8324 238.696 82.8051C238.122 82.7941 237.586 82.9664 237.088 83.3219C236.591 83.6719 236.153 84.2023 235.776 84.9133L234.726 91H233.758L235.3 82.1242H236.235ZM243.889 91H242.904L244.455 82.1242H245.431L243.889 91ZM244.725 79.5566C244.753 79.2012 244.988 78.977 245.431 78.884C245.644 78.9223 245.795 78.9906 245.882 79.0891C245.975 79.182 246.035 79.3379 246.062 79.5566C246.008 79.7645 245.929 79.9176 245.825 80.016C245.721 80.109 245.565 80.1773 245.357 80.2211C244.914 80.1555 244.704 79.934 244.725 79.5566ZM249.975 90.3438C250.621 90.3656 251.189 90.1879 251.682 89.8105C252.179 89.4277 252.51 88.9137 252.674 88.2684H253.601C253.437 89.1488 253.005 89.8598 252.305 90.4012C251.611 90.9371 250.818 91.1941 249.926 91.1723C249.21 91.1559 248.608 90.959 248.121 90.5816C247.635 90.2043 247.282 89.682 247.063 89.0148C246.85 88.3477 246.782 87.5957 246.858 86.759L246.891 86.4063C246.957 85.832 247.096 85.2742 247.309 84.7328C247.528 84.1914 247.818 83.7129 248.179 83.2973C248.54 82.8762 248.969 82.5453 249.467 82.3047C249.97 82.0586 250.536 81.9438 251.165 81.9602C252.073 81.982 252.795 82.2883 253.33 82.8789C253.866 83.4695 254.118 84.2188 254.085 85.1266L253.158 85.1184C253.169 84.4348 252.991 83.8824 252.625 83.4613C252.259 83.0402 251.758 82.8188 251.124 82.7969C250.446 82.775 249.847 82.9719 249.327 83.3875C248.808 83.8031 248.417 84.391 248.154 85.1512C247.892 85.9113 247.769 86.718 247.785 87.5711C247.802 88.4516 247.998 89.1297 248.376 89.6055C248.753 90.0758 249.286 90.3219 249.975 90.3438ZM255.258 86.4801C255.357 85.6215 255.619 84.8367 256.046 84.1258C256.472 83.4094 257.003 82.8652 257.637 82.4934C258.277 82.1215 258.969 81.9438 259.712 81.9602C260.445 81.9711 261.069 82.1734 261.583 82.5672C262.102 82.9555 262.48 83.4887 262.715 84.1668C262.955 84.8395 263.037 85.5859 262.961 86.4063L262.945 86.5621C262.78 87.9621 262.283 89.0859 261.452 89.9336C260.626 90.7813 259.633 91.1914 258.474 91.1641C257.479 91.1477 256.683 90.7813 256.087 90.0648C255.491 89.3484 255.198 88.4023 255.209 87.2266L255.234 86.759L255.258 86.4801ZM256.21 86.759C256.139 87.4098 256.185 88.0113 256.349 88.5637C256.519 89.1105 256.787 89.5398 257.153 89.8516C257.52 90.1633 257.976 90.3273 258.523 90.3438C259.114 90.3547 259.652 90.2043 260.139 89.8926C260.631 89.5809 261.036 89.1406 261.353 88.5719C261.67 88.0031 261.875 87.3742 261.968 86.6852L261.993 86.4145C262.091 85.359 261.927 84.4977 261.501 83.8305C261.08 83.1578 260.467 82.8133 259.663 82.7969C258.788 82.7695 258.031 83.1086 257.391 83.8141C256.757 84.5141 256.368 85.4465 256.226 86.6113L256.21 86.759ZM273.814 91C273.786 90.7922 273.778 90.5844 273.789 90.3766L273.863 89.7613C273.453 90.2043 272.982 90.5516 272.452 90.8031C271.927 91.0547 271.358 91.175 270.746 91.1641C269.996 91.1531 269.387 90.918 268.916 90.4586C268.452 89.9938 268.244 89.4113 268.293 88.7113C268.337 88.1262 268.536 87.6203 268.892 87.1938C269.253 86.7617 269.764 86.4281 270.426 86.193C271.087 85.9523 271.829 85.832 272.649 85.832L274.462 85.8402L274.609 84.823C274.675 84.216 274.544 83.7293 274.216 83.3629C273.887 82.9965 273.404 82.8023 272.764 82.7805C272.118 82.7695 271.555 82.9309 271.074 83.2645C270.598 83.5926 270.3 84.0273 270.18 84.5688H269.22C269.329 83.7922 269.729 83.1605 270.418 82.6738C271.107 82.1816 271.921 81.941 272.862 81.952C273.775 81.9738 274.478 82.25 274.97 82.7805C275.468 83.3109 275.67 84 275.577 84.8477L274.839 89.3102L274.773 90.0238C274.757 90.3191 274.779 90.6117 274.839 90.9016L274.823 91H273.814ZM270.91 90.3027C271.511 90.3246 272.086 90.1824 272.632 89.8762C273.185 89.5645 273.641 89.1242 274.002 88.5555L274.339 86.5949L272.772 86.5867C271.777 86.5867 270.964 86.7645 270.336 87.1199C269.707 87.4699 269.359 87.973 269.294 88.6293C269.245 89.1105 269.37 89.507 269.671 89.8188C269.977 90.1305 270.39 90.2918 270.91 90.3027ZM280.827 91.1723C280.319 91.1613 279.837 91.0547 279.384 90.8523C278.935 90.6445 278.571 90.3219 278.293 89.8844L277.472 94.4125H276.504L278.637 82.1242H279.539L279.31 83.3793C280.081 82.4004 281.046 81.9273 282.205 81.9602C283.037 81.982 283.685 82.291 284.15 82.8871C284.614 83.4832 284.855 84.3281 284.871 85.4219C284.877 85.7664 284.861 86.1 284.822 86.4227L284.789 86.6523C284.653 87.6094 284.396 88.4352 284.018 89.1297C283.641 89.8242 283.182 90.3438 282.64 90.6883C282.099 91.0273 281.495 91.1887 280.827 91.1723ZM283.846 86.4227L283.895 85.6434C283.912 84.7684 283.753 84.082 283.42 83.5844C283.086 83.0867 282.591 82.827 281.935 82.8051C281.361 82.7941 280.838 82.9363 280.368 83.2316C279.903 83.5215 279.509 83.9453 279.187 84.5031L278.457 88.777C278.632 89.2801 278.908 89.6629 279.285 89.9254C279.668 90.1879 280.125 90.3273 280.655 90.3438C281.448 90.3711 282.118 90.0758 282.665 89.4578C283.217 88.8344 283.589 87.9676 283.78 86.8574L283.846 86.4227ZM289.949 91.1723C289.441 91.1613 288.959 91.0547 288.505 90.8523C288.057 90.6445 287.693 90.3219 287.414 89.8844L286.594 94.4125H285.626L287.759 82.1242H288.661L288.432 83.3793C289.203 82.4004 290.168 81.9273 291.327 81.9602C292.159 81.982 292.807 82.291 293.271 82.8871C293.736 83.4832 293.977 84.3281 293.993 85.4219C293.999 85.7664 293.982 86.1 293.944 86.4227L293.911 86.6523C293.775 87.6094 293.518 88.4352 293.14 89.1297C292.763 89.8242 292.304 90.3438 291.762 90.6883C291.221 91.0273 290.616 91.1887 289.949 91.1723ZM292.968 86.4227L293.017 85.6434C293.034 84.7684 292.875 84.082 292.541 83.5844C292.208 83.0867 291.713 82.827 291.057 82.8051C290.482 82.7941 289.96 82.9363 289.49 83.2316C289.025 83.5215 288.631 83.9453 288.309 84.5031L287.579 88.777C287.754 89.2801 288.03 89.6629 288.407 89.9254C288.79 90.1879 289.246 90.3273 289.777 90.3438C290.57 90.3711 291.24 90.0758 291.787 89.4578C292.339 88.8344 292.711 87.9676 292.902 86.8574L292.968 86.4227Z" fill="#0D1B2A"/>
</svg>
