<?xml version="1.0" standalone="no"?><!DOCTYPE svg PUBLIC "-//W3C//DTD SVG 1.1//EN" "http://www.w3.org/Graphics/SVG/1.1/DTD/svg11.dtd"><svg t="1618752693694" class="icon" viewBox="0 0 1024 1024" version="1.1" xmlns="http://www.w3.org/2000/svg" p-id="1186" xmlns:xlink="http://www.w3.org/1999/xlink" width="200" height="200"><defs><style type="text/css"></style></defs><path d="M652.8 840.512a45.056 45.056 0 0 1-32.832-14.08c-18.816-18.752-18.816-48.448 0-65.664L868.672 512 619.968 263.232c-18.816-18.752-18.816-48.448 0-65.664 18.752-18.816 48.448-18.816 65.664 0l281.6 281.6c18.816 18.752 18.816 48.448 0 65.664l-281.6 281.6a42.624 42.624 0 0 1-32.832 14.08zM89.6 42.688h397.376a46.08 46.08 0 0 1 46.912 46.912 46.08 46.08 0 0 1-46.912 46.912H136.512v750.976H487.04a46.08 46.08 0 0 1 46.912 46.912 46.08 46.08 0 0 1-46.912 46.912h-397.44a46.08 46.08 0 0 1-46.912-46.912V89.6A46.08 46.08 0 0 1 89.6 42.688z" fill="#172B4D" p-id="1187"></path><path d="M884.352 558.912H328.96A46.08 46.08 0 0 1 281.984 512a46.08 46.08 0 0 1 46.976-46.912h555.392A46.08 46.08 0 0 1 931.2 512a46.08 46.08 0 0 1-46.912 46.912z" fill="#172B4D" p-id="1188"></path></svg>